/* XPM */
static char * coin_xpm[] = {
"32 32 3 1",
"0 c #000000",
"1 c #C0C000",
"2 c #FFFF00",
"00000000000000000000000000000000",
"00000000000000000000000000000000",
"00000000000001111100000000000000",
"00000000000112222221000000000000",
"00000000001222222222100000000000",
"00000000012222222222210000000000",
"00000000012222222222210000000000",
"00000000012222222222210000000000",
"00000000012222222222210000000000",
"00000000012222222222210000000000",
"00000000012222222222210000000000",
"00000000012222222222210000000000",
"00000000012222222222210000000000",
"00000000001222222222100000000000",
"00000000000112222221000000000000",
"00000000000001111100000000000000",
"00000000000000000000000000000000",
"00000000000000000000000000000000",
"00000000000000000000000000000000",
"00000000000000000000000000000000",
"00000000000000000000000000000000",
"00000000000000000000000000000000",
"00000000000000000000000000000000",
"00000000000000000000000000000000",
"00000000000000000000000000000000",
"00000000000000000000000000000000",
"00000000000000000000000000000000",
"00000000000000000000000000000000",
"00000000000000000000000000000000",
"00000000000000000000000000000000",
"00000000000000000000000000000000",
"00000000000000000000000000000000"};
