/* XPM */
static char * player_xpm[] = {
"32 32 3 1",
"0 c #000000",
"1 c #FFD700",
"2 c #FFFFFF",
"00000000000000000000000000000000",
"00000000000000000000000000000000",
"00000000000011111111000000000000",
"00000000000112222222100000000000",
"00000000001221111112210000000000",
"00000000012211111111221000000000",
"00000000012211111111221000000000",
"00000000012211122111221000000000",
"00000000012211111111221000000000",
"00000000012211111111221000000000",
"00000000001221111112210000000000",
"00000000000112222222100000000000",
"00000000000011111111000000000000",
"00000000000000111100000000000000",
"00000000000000111100000000000000",
"00000000000000111100000000000000",
"00000000000000111100000000000000",
"00000000000000111100000000000000",
"00000000000000111100000000000000",
"00000000000000111100000000000000",
"00000000000000111100000000000000",
"00000000000000111100000000000000",
"00000000000000111100000000000000",
"00000000000000111100000000000000",
"00000000000000111100000000000000",
"00000000000000111100000000000000",
"00000000000000111100000000000000",
"00000000000000111100000000000000",
"00000000000000000000000000000000",
"00000000000000000000000000000000",
"00000000000000000000000000000000",
"00000000000000000000000000000000"};
